<?xml version="1.0" standalone="no"?>
<!DOCTYPE svg PUBLIC "-//W3C//DTD SVG 20010904//EN"
 "http://www.w3.org/TR/2001/REC-SVG-20010904/DTD/svg10.dtd">
<svg version="1.0" xmlns="http://www.w3.org/2000/svg"
 width="512.000000pt" height="512.000000pt" viewBox="0 0 512.000000 512.000000"
 preserveAspectRatio="xMidYMid meet">
<metadata>
Created by potrace 1.11, written by Peter Selinger 2001-2013
</metadata>
<g transform="translate(0.000000,512.000000) scale(0.100000,-0.100000)"
fill="#000000" stroke="none">
<path d="M262 5107 c-122 -45 -187 -203 -133 -323 16 -36 357 -401 831 -889
58 -60 209 -218 335 -350 206 -216 436 -456 805 -840 68 -71 129 -133 135
-137 7 -5 7 -11 0 -16 -5 -4 -59 -59 -120 -122 -60 -64 -166 -174 -235 -245
-69 -72 -219 -229 -335 -350 -330 -345 -669 -700 -786 -820 -410 -425 -610
-641 -630 -681 -18 -38 -21 -58 -17 -113 10 -131 102 -221 227 -221 87 0 126
31 387 305 131 138 290 304 354 370 64 66 219 228 345 360 126 132 281 294
345 360 63 66 217 226 340 355 123 129 276 288 339 353 l115 118 46 -48 c202
-212 726 -761 820 -858 64 -66 220 -228 345 -360 255 -267 627 -655 780 -814
110 -114 154 -141 230 -141 86 0 164 50 206 132 27 54 25 159 -4 215 -12 22
-116 139 -232 260 -115 120 -308 322 -430 448 -121 127 -324 338 -450 470
-126 132 -270 283 -320 335 -272 283 -568 592 -615 643 l-54 58 60 62 c33 34
111 116 174 182 63 66 219 228 345 360 127 132 324 339 440 460 205 216 324
340 556 580 383 398 506 530 526 567 30 53 31 154 4 213 -53 114 -186 166
-295 115 -25 -12 -79 -58 -127 -108 -154 -160 -532 -554 -764 -797 -125 -132
-281 -294 -345 -360 -64 -66 -264 -275 -446 -465 -181 -190 -356 -374 -390
-409 l-61 -64 -129 134 c-72 74 -233 242 -359 374 -126 132 -279 292 -340 355
-61 63 -214 223 -340 355 -835 875 -922 964 -970 986 -45 21 -114 23 -163 6z"/>
<path d="M431 2686 c-8 -9 -11 -45 -9 -98 l3 -83 479 -3 c377 -2 481 0 488 10
13 21 10 162 -4 176 -19 19 -941 17 -957 -2z"/>
<path d="M2485 1647 c-11 -7 -61 -55 -111 -107 -50 -52 -147 -153 -215 -225
-278 -289 -279 -290 -279 -330 0 -29 8 -45 34 -71 35 -35 63 -42 95 -24 18 9
119 111 386 390 72 74 132 136 136 138 3 1 119 -117 257 -262 269 -282 282
-292 341 -262 38 20 51 44 51 94 0 38 -10 50 -256 308 -348 367 -346 364 -386
364 -18 -1 -42 -6 -53 -13z"/>
</g>
</svg>
